<svg width="14" height="23" viewBox="0 0 14 23" fill="none" xmlns="http://www.w3.org/2000/svg">
<path d="M6.82157 7.90625C10.2825 7.90789 13.0346 10.4807 13.044 13.6055C13.0443 13.6116 13.0443 13.6185 13.0443 13.6249L13.0443 17.2004C13.0442 20.3539 10.2526 22.9191 6.82155 22.919C3.39033 22.9193 0.598573 20.3537 0.598866 17.2004L0.598869 15.2261C0.598869 14.7025 1.27875 14.4257 1.696 14.7821C2.22778 15.2364 2.8352 15.6255 3.50268 15.9269C3.72871 16.029 3.87406 16.238 3.87406 16.4695L3.87406 17.1658C3.87406 18.657 5.16963 19.8944 6.79217 19.909C8.43072 19.9238 9.76906 18.7029 9.76906 17.2004L9.76935 13.6252C9.76935 12.1252 8.44689 10.9161 6.82157 10.9161C6.60749 10.9163 6.41649 10.9392 6.27416 10.9633C6.17357 10.9805 6.07001 10.9758 5.97173 10.9496C5.87346 10.9235 5.78319 10.8766 5.70813 10.8127C5.39078 10.5422 5.18394 10.1529 5.18394 9.7086L5.18391 8.58836C5.18392 8.2946 5.41501 8.04616 5.72967 7.9947C6.09011 7.93585 6.45549 7.90625 6.82157 7.90625ZM6.82138 0.407385C3.39035 0.407362 0.59868 2.97248 0.598677 6.12604L0.598672 9.70152C0.598672 9.70791 0.598672 9.71483 0.598962 9.72094C0.608394 12.8457 3.36043 15.4185 6.82136 15.4202C7.18742 15.4202 7.55278 15.3906 7.9132 15.3317C8.22786 15.2803 8.45896 15.0318 8.45896 14.7381L8.45893 13.6178C8.45893 13.1735 8.25209 12.7843 7.93474 12.5137C7.85968 12.4498 7.76941 12.4029 7.67114 12.3768C7.57286 12.3506 7.4693 12.346 7.36871 12.3631C7.22638 12.3873 7.03538 12.4101 6.8213 12.4103C5.19598 12.4103 3.87352 11.2012 3.87352 9.70125L3.87381 6.12604C3.87381 4.62353 5.21212 3.40268 6.8507 3.41742C8.47324 3.43205 9.76884 4.66942 9.76881 6.16062L9.76881 6.85693C9.76881 7.08838 9.91416 7.29745 10.1402 7.3995C10.8077 7.70092 11.4151 8.09004 11.9469 8.54427C12.3642 8.90067 13.044 8.62386 13.044 8.10031L13.044 6.12603C13.0444 2.97274 10.2526 0.407116 6.82138 0.407385Z" fill="#F1F5FE"/>
</svg>
