<svg width="20" height="20" viewBox="0 0 20 20" fill="none" xmlns="http://www.w3.org/2000/svg">
<path d="M19.6599 8.24996L10.6599 0.249955C10.4774 0.0896359 10.2428 0.0012207 9.99988 0.0012207C9.75697 0.0012207 9.52236 0.0896359 9.33988 0.249955L0.339875 8.24996C0.186911 8.38527 0.0790427 8.56417 0.0307741 8.76261C-0.0174945 8.96104 -0.00384947 9.1695 0.0698747 9.35995C0.142393 9.54789 0.26998 9.70954 0.435924 9.82374C0.601869 9.93794 0.798434 9.99936 0.999875 9.99996H1.99987V19C1.99987 19.2652 2.10523 19.5195 2.29277 19.7071C2.4803 19.8946 2.73466 20 2.99987 20H16.9999C17.2651 20 17.5194 19.8946 17.707 19.7071C17.8945 19.5195 17.9999 19.2652 17.9999 19V9.99996H18.9999C19.2013 9.99936 19.3979 9.93794 19.5638 9.82374C19.7298 9.70954 19.8574 9.54789 19.9299 9.35995C20.0036 9.1695 20.0172 8.96104 19.969 8.76261C19.9207 8.56417 19.8128 8.38527 19.6599 8.24996ZM10.9999 18H8.99988V15C8.99988 14.7347 9.10523 14.4804 9.29277 14.2928C9.4803 14.1053 9.73466 14 9.99988 14C10.2651 14 10.5194 14.1053 10.707 14.2928C10.8945 14.4804 10.9999 14.7347 10.9999 15V18ZM15.9999 18H12.9999V15C12.9999 14.2043 12.6838 13.4412 12.1212 12.8786C11.5586 12.316 10.7955 12 9.99988 12C9.20423 12 8.44116 12.316 7.87855 12.8786C7.31594 13.4412 6.99987 14.2043 6.99987 15V18H3.99987V9.99996H15.9999V18ZM3.62987 7.99996L9.99988 2.33996L16.3699 7.99996H3.62987Z" fill="#DADADA"/>
</svg>
